<svg width="36" height="36" viewBox="0 0 36 36" fill="none" xmlns="http://www.w3.org/2000/svg">
<rect width="36" height="36" rx="8" fill="#FFCC91" fill-opacity="0.16"/>
<path fill-rule="evenodd" clip-rule="evenodd" d="M21.7605 25.9166H14.804C12.2487 25.9166 10.2883 24.9936 10.8452 21.2789L11.4935 16.2446C11.8368 14.391 13.0191 13.6816 14.0565 13.6816H22.5385C23.5912 13.6816 24.7048 14.4444 25.1015 16.2446L25.7498 21.2789C26.2227 24.5741 24.3158 25.9166 21.7605 25.9166Z" stroke="#130F26" stroke-width="1.5" stroke-linecap="round" stroke-linejoin="round"/>
<path d="M21.8741 13.4988C21.8741 11.5104 20.2622 9.89847 18.2738 9.89847V9.89847C17.3163 9.89441 16.3966 10.2719 15.7181 10.9476C15.0396 11.6232 14.6582 12.5413 14.6582 13.4988V13.4988" stroke="#130F26" stroke-width="1.5" stroke-linecap="round" stroke-linejoin="round"/>
<path d="M20.7462 17.2515H20.708" stroke="#130F26" stroke-width="1.5" stroke-linecap="round" stroke-linejoin="round"/>
<path d="M15.8868 17.2515H15.8486" stroke="#130F26" stroke-width="1.5" stroke-linecap="round" stroke-linejoin="round"/>
</svg>
