<svg width="20" height="20" viewBox="0 0 20 20" fill="none" xmlns="http://www.w3.org/2000/svg">
<path fill-rule="evenodd" clip-rule="evenodd" d="M7.592 13.207C11.281 13.207 14.434 13.766 14.434 15.999C14.434 18.232 11.302 18.807 7.592 18.807C3.902 18.807 0.75 18.253 0.75 16.019C0.75 13.785 3.881 13.207 7.592 13.207Z" stroke="#53545C" stroke-width="1.5" stroke-linecap="round" stroke-linejoin="round"/>
<path fill-rule="evenodd" clip-rule="evenodd" d="M7.59108 10.02C5.16908 10.02 3.20508 8.057 3.20508 5.635C3.20508 3.213 5.16908 1.25 7.59108 1.25C10.0121 1.25 11.9761 3.213 11.9761 5.635C11.9851 8.048 10.0351 10.011 7.62208 10.02H7.59108Z" stroke="#53545C" stroke-width="1.5" stroke-linecap="round" stroke-linejoin="round"/>
<path d="M14.4844 8.88226C16.0854 8.65726 17.3184 7.28326 17.3214 5.62026C17.3214 3.98126 16.1264 2.62126 14.5594 2.36426" stroke="#53545C" stroke-width="1.5" stroke-linecap="round" stroke-linejoin="round"/>
<path d="M16.5957 12.7324C18.1467 12.9634 19.2297 13.5074 19.2297 14.6274C19.2297 15.3984 18.7197 15.8984 17.8957 16.2114" stroke="#53545C" stroke-width="1.5" stroke-linecap="round" stroke-linejoin="round"/>
</svg>
