<svg width="14" height="14" viewBox="0 0 14 14" fill="none" xmlns="http://www.w3.org/2000/svg">
<path d="M5.09517 12.8549V10.8103C5.09516 10.2922 5.51646 9.8713 6.03831 9.86804H7.95442C8.4786 9.86804 8.90353 10.2899 8.90353 10.8103V12.849C8.90351 13.2983 9.2687 13.6636 9.72131 13.6668H11.0286C11.6391 13.6684 12.2252 13.4287 12.6575 13.0006C13.0897 12.5726 13.3327 11.9913 13.3327 11.3852V5.57739C13.3327 5.08775 13.1141 4.6233 12.7358 4.30916L8.29467 0.783008C7.51836 0.166244 6.4096 0.186168 5.65628 0.830419L1.31069 4.30916C0.914509 4.61404 0.677717 5.07987 0.666016 5.57739V11.3793C0.666016 12.6426 1.6976 13.6668 2.97013 13.6668H4.24754C4.46546 13.6684 4.67501 13.5835 4.82966 13.4311C4.98432 13.2787 5.0713 13.0713 5.07129 12.8549H5.09517Z" fill="#5570F1"/>
</svg>
